# xmcd
#
# Track frame offsets:
#	150
#	30876
#	47178
#	71121
#	100283
#	117069
#	131321
#	145519
#	166637
#	187726
#	202857
#	222222
#	240245
#
# Disc length: 3507 seconds
#
# Revision: 1
# Processed by: cddbd v1.5.2PL0 Copyright (c) Steve Scherf et al.
# Submitted via: EasyCDDAExtractor 11.0.2.1
#
DISCID=9c0db10d
DTITLE=Jay Sewall - Live
DYEAR=2008
DGENRE=Jazz Cajun
TTITLE0=New Orleans
TTITLE1=Satan's sweetheart
TTITLE2=Be-bop béluga
TTITLE3=n indian city
TTITLE4=Basin street blues
TTITLE5=Paper in my shoes
TTITLE6=La chatte aristocrate
TTITLE7=Kokopelli
TTITLE8=Every grain of sand
TTITLE9=Valse pour un cajun
TTITLE10=Jambalaya
TTITLE11=Funkiest little girl Down in New Orleans
TTITLE12=Georgia on my mind
EXTD=
EXTT0=
EXTT1=
EXTT2=
EXTT3=
EXTT4=
EXTT5=
EXTT6=
EXTT7=
EXTT8=
EXTT9=
EXTT10=
EXTT11=
EXTT12=
PLAYORDER=
